<svg xmlns="http://www.w3.org/2000/svg" viewBox="0 0 290.4 85.1"><defs><style>.cls-1,.cls-2{fill:#afba36;}.cls-2{fill-rule:evenodd;}.cls-3{fill:#877a72;}</style></defs><title>Asset 1</title><g id="Layer_2" data-name="Layer 2"><g id="Bilingual"><path class="cls-1" d="M0,21.38H6l5.89,8.29,6-8.29h5.82l-9.3,12.68V46.75H9.3V34.06Z"/><path class="cls-1" d="M27.78,43.1a12.29,12.29,0,0,1-3.64-9A12.42,12.42,0,0,1,36.83,21.38,12.42,12.42,0,0,1,49.51,34.06,12.42,12.42,0,0,1,36.83,46.75,12.27,12.27,0,0,1,27.78,43.1ZM36.85,42a7.12,7.12,0,0,0,5.48-2.28,8,8,0,0,0,2.11-5.67,8,8,0,0,0-2.11-5.67,7.16,7.16,0,0,0-5.51-2.28,7.13,7.13,0,0,0-5.48,2.28,8,8,0,0,0-2.11,5.67,8,8,0,0,0,2.11,5.67A7.17,7.17,0,0,0,36.85,42Z"/><path class="cls-1" d="M56.56,43.1A12.3,12.3,0,0,1,52.92,34,12.46,12.46,0,0,1,65.58,21.38a13.72,13.72,0,0,1,9.32,3.38l-3.38,3.7a9.36,9.36,0,0,0-5.94-2,7.45,7.45,0,0,0-5.5,2.13A7.37,7.37,0,0,0,58,34a7.6,7.6,0,0,0,2.11,5.61,7.49,7.49,0,0,0,5.51,2.08,7,7,0,0,0,4.21-1.08V36.25l-3.38,0V31.53H74.9V43.37a13.68,13.68,0,0,1-9.32,3.38A12.34,12.34,0,0,1,56.56,43.1Z"/><path class="cls-1" d="M78.67,46.75,88.82,21.38h5.07L104,46.73l-5.4,0-1.52-3.89H85.61l-1.52,3.89Zm12.82-18.6-3.86,9.64h7.61Z"/><path class="cls-1" d="M185,46.75V21.38h1.69l11,12.51,11-12.51h1.69V46.75h-5.07l0-14.71-7.61,8.46L190.07,32V46.75Z"/><path class="cls-1" d="M214.1,46.75l10.15-25.37h5.07l10.13,25.35-5.4,0-1.52-3.89H221l-1.52,3.89Zm12.82-18.6-3.86,9.64h7.61Z"/><path class="cls-1" d="M248.37,21.38V42H261.9v4.74h-18.6V21.38Z"/><path class="cls-1" d="M264.74,46.75l10.15-25.37H280l10.13,25.35-5.4,0-1.52-3.89h-11.5l-1.52,3.89Zm12.82-18.6-3.86,9.64h7.61Z"/><polygon class="cls-2" points="144.79 9.45 146.34 8.29 147.43 6.67 147.63 4.71 147.13 2.82 145.91 1.32 144.25 0.35 142.34 0 140.45 0.51 138.93 1.71 137.81 3.33 137.63 5.29 138.12 7.18 139.33 8.71 141.01 9.66 142.92 9.97 144.79 9.45"/><polygon class="cls-2" points="134.25 10.72 135.24 9.05 135.35 7.11 134.85 5.26 133.66 3.75 131.97 2.81 130.04 2.47 128.17 3.08 126.65 4.31 125.77 6.03 125.56 7.95 126.02 9.83 127.25 11.35 128.97 12.24 130.9 12.61 132.77 11.98 134.25 10.72"/><polygon class="cls-2" points="118.94 20.07 120.87 20.18 122.72 19.64 124.23 18.41 125.08 16.66 125.3 14.73 124.62 12.92 123.4 11.44 121.7 10.53 119.78 10.36 117.87 10.84 116.41 12.16 115.52 13.9 115.43 15.83 116.01 17.66 117.2 19.2 118.94 20.07"/><polygon class="cls-2" points="114.9 31.36 116.76 30.7 118.16 29.32 119.02 27.59 119.13 25.65 118.44 23.84 117.2 22.37 115.47 21.49 113.53 21.43 111.67 22.01 110.29 23.37 109.44 25.08 109.3 27 109.93 28.83 111.14 30.38 112.94 31.17 114.9 31.36"/><polygon class="cls-2" points="115.9 43.04 117.36 41.73 118.22 39.95 118.15 37.99 117.58 36.11 116.22 34.68 114.39 33.97 112.46 33.88 110.64 34.57 109.27 35.93 108.43 37.67 108.33 39.61 109.07 41.41 110.35 42.86 112.15 43.57 114.07 43.66 115.9 43.04"/><polygon class="cls-2" points="121.89 53.95 122.63 52.12 122.69 50.14 121.85 48.35 120.49 46.97 118.7 46.17 116.73 46.11 114.96 46.96 113.48 48.24 112.73 50.07 112.81 52.03 113.52 53.84 114.89 55.22 116.69 55.91 118.62 55.97 120.43 55.27 121.89 53.95"/><polygon class="cls-2" points="127.94 55.4 126.03 55.45 124.28 56.22 122.84 57.53 122.07 59.35 122.14 61.32 122.89 63.16 124.39 64.44 126.2 65.15 128.15 65.16 129.98 64.41 131.24 62.91 132.08 61.14 132.02 59.16 131.15 57.41 129.77 56.05 127.94 55.4"/><polygon class="cls-2" points="136.78 60.64 135.08 61.59 133.64 62.92 133.02 64.79 133.22 66.73 134.05 68.46 135.46 69.74 137.24 70.52 139.22 70.49 140.99 69.62 142.36 68.19 142.93 66.3 142.84 64.35 142.05 62.57 140.62 61.2 138.74 60.66 136.78 60.64"/><polygon class="cls-2" points="163.5 55.86 161.64 55.21 159.7 55.53 157.93 56.37 156.68 57.9 156.24 59.8 156.27 61.76 157.25 63.48 158.82 64.62 160.66 65.16 162.56 64.97 164.33 64.17 165.63 62.68 166.17 60.78 166.02 58.8 165 57.12 163.5 55.86"/><polygon class="cls-2" points="169.55 46.09 167.64 46.33 165.91 47.22 164.73 48.77 164.19 50.65 164.36 52.62 165.44 54.26 166.92 55.54 168.83 56.06 170.75 55.69 172.52 54.86 173.69 53.27 174.1 51.37 173.85 49.47 172.9 47.81 171.45 46.52 169.55 46.09"/><polygon class="cls-2" points="171.75 33.77 170.1 34.82 168.88 36.35 168.39 38.27 168.82 40.19 169.82 41.83 171.33 43.05 173.23 43.5 175.17 43.22 176.9 42.27 177.96 40.62 178.52 38.74 178.22 36.79 177.1 35.19 175.63 33.9 173.7 33.48 171.75 33.77"/><polygon class="cls-2" points="168.35 22.62 167.31 24.29 166.94 26.18 167.2 28.09 168.22 29.77 169.85 30.84 171.75 31.34 173.71 31 175.28 29.84 176.38 28.25 176.87 26.38 176.51 24.45 175.47 22.8 173.9 21.61 171.96 21.31 170.01 21.56 168.35 22.62"/><polygon class="cls-2" points="163.96 20.13 165.84 20.66 167.79 20.26 169.43 19.15 170.5 17.48 170.77 15.54 170.34 13.66 169.32 12.02 167.71 10.91 165.78 10.59 163.84 10.91 162.2 12.01 161.24 13.71 160.88 15.61 161.19 17.52 162.3 19.13 163.96 20.13"/><polygon class="cls-2" points="155.26 12.29 157.13 11.69 158.8 10.66 159.82 8.98 160.02 7.04 159.74 5.1 158.58 3.49 156.9 2.44 154.94 2.14 153.06 2.68 151.51 3.83 150.43 5.44 150.06 7.36 150.56 9.26 151.64 10.89 153.31 11.95 155.26 12.29"/><path class="cls-2" d="M152.54,75l1-.15a.4.4,0,0,0,.38-.42l-.68-4.27a.42.42,0,0,0-.5-.28l-.21,0a5,5,0,1,0-3.13.5l-.37.06a.41.41,0,0,0-.39.42l.69,4.27a.4.4,0,0,0,.5.28l.67-.11-2,9.25a.34.34,0,0,0,.06.47s4.43-.34,5-.53l4.19-.91a.34.34,0,0,0-.06-.47Z"/><path class="cls-1" d="M143.24,66.19a31,31,0,1,1,31-31,31,31,0,0,1-31,31Zm0-60a29,29,0,1,0,29,29,29,29,0,0,0-29-29Z"/><path class="cls-3" d="M157.58,32.64h.19l.22.09h0l.07,0-.11-.09h0l0,0h0l-.25-.18h0l-.06,0h0l-.06,0h0l-.06,0h0l-.06,0h0l-.07,0h0l-.38-.21h0l-.08,0h0l-.08,0h0l-.08,0h0l-.08,0h0l-.09,0h0l-.11,0h0l-.26-.11h0l-.12,0h0l-.1,0h0l-.1,0,0,0-.1,0-.05,0-.1,0,0,0-.11,0h0l-.12,0h0l-.32-.07h0l-.13,0h-.05l-.11,0h-.06l-.11,0h-2.2l-.13,0h-.08l-.14,0h-.06l-.41.09-.07,0-.14,0-.08,0-.13,0-.09,0-.13,0-.09,0-.13,0-.09,0-.13,0-.09,0-.13.05-.09,0-.15.07-.07,0-.22.11L149,32l-.07,0-.15.08-.08,0-.14.08-.08,0-.15.09-.06,0-.2.12-.05,0-.14.09-.07,0-.12.08-.07.05-.11.08-.07,0-.13.09-.06.05-.14.11-.07.05-.09.07-.07.06-.08.07-.07.06-.08.07-.07.06h0l-.23.22h0l0,0-.19.2h0l-.17.19,0,0-.16.2,0,0-.14.18,0,0-.14.2,0,0-.12.17,0,0-.12.19,0,0-.1.18h0l-.1.19,0,0c-.06.12-.12.25-.17.37v0l-.07.17v0l-.06.16v0l-.05.16v0l0,.14v0l0,.15v0l0,.13v0l0,.14v0l0,.13h0s0,.09,0,.13v0l0,.23v0s0,.07,0,.1h0s0,.06,0,.09v0s0,.06,0,.08h0v.07h0s0,0,0,.06h0s0,0,0,0h0s0,0,0,0h0v0h0v0h0V39a.24.24,0,0,1,0,0v.13h0l0,.07h0l0,0v0a8.29,8.29,0,0,0-.49.86s-.05.08-.08.07,0-.07,0-.07h0c0-.08,0-.11,0-.11h0a59.07,59.07,0,0,0-1.52-14.6,3,3,0,0,1,0-1.12,3.38,3.38,0,0,0,.72-.45h0l.31-.08h0c5.42-1.52,6.42-6.74,7-7.46l.06-.07,0,0,0,0,0,0,0,0,0,0,0,0,0,0,0,0,0,0,0,0h0l0,0h0l0,0h0l0,0h0l.05,0h0l.05,0h0l.05,0h0l.06,0h.07l.12,0h0a1.74,1.74,0,0,1,.53,0h0c-.23-.11-3.72-1.73-7.49,1.49a9.24,9.24,0,0,0-1.91,2.16l0,0-.12.2v0l-.1.19,0,0-.09.2v0l-.08.19h0l-.07.19v0l-.06.18h0l-.05.17v0c0,.06,0,.12,0,.17v0l0,.17h0l0,.17v0c0,.05,0,.11,0,.16h0l0,.15v0s0,.1,0,.15v0s0,.09,0,.14h0s0,.09,0,.14v0s0,.09,0,.13h0s0,.08,0,.12v0s0,.08,0,.11v.12h0v.08l0,0,0,.05,0,.05v0l0,0h0a4.28,4.28,0,0,0-2.35-2,5.17,5.17,0,0,0-5.22.42l0,0h.8l.06,0h0l.07,0h0l.09.05c.54.34,2,3.57,6.2,3.27a.63.63,0,0,0,.27-.06,2.77,2.77,0,0,1,.27.7,62.72,62.72,0,0,1,1.28,12.56c0-.19,0-.37-.05-.54s-.09-.06-.08,0,0,.17-.1,0l-.24-.48h0l0,0h0v-.07h0V36.8h0v0h0l0,0v0h0l0-.06h0l0-.09h0v0h0v0h0v0h0v-.59a.19.19,0,0,1,0,0v-.15s0,0,0,0v-.09s0,0,0-.07v-.15s0,0,0,0,0,0,0,0V35s0,0,0-.06,0,0,0,0v-.47l0-.1v-.05a.49.49,0,0,0,0-.06V34.2l0-.06v-.05a1,1,0,0,0,0-.11v-.05l0-.07,0-.06,0-.07,0-.05,0-.12,0-.05,0-.08,0-.06,0-.07,0-.06-.06-.12,0-.05,0-.08,0-.06,0-.08,0-.05-.07-.13,0-.06-.05-.08,0-.06-.06-.09,0-.05-.09-.13,0-.05-.07-.09,0-.06,0,0h0l0,0,0,0,0,0,0,0,0,0h0l-.06-.07-.06-.07-.08-.09-.07-.08-.08-.09,0,0h0a12.2,12.2,0,0,0-2.92-2.22c-4.89-2.79-9.91-.1-9.91-.1l.15,0h0l.32-.06h.92l.06,0h0l.06,0h0l.06,0h0l.06,0,0,0,.06,0,0,0h0l.05,0h0l.06,0h0l.09.06c1,.8,3.8,7.78,11.55,7.95a1,1,0,0,0,.47-.1,7.75,7.75,0,0,1,.6,2.21c0,1.43-.1,2.93-.23,4.47l0,0s0,0,0,0a4.16,4.16,0,0,0-.18-.44h0v0h0v0h0v-.18h0v0h0v0h0v0h0v0h0v0h0v0h0v0h0s0,0,0-.05h0v-.13h0a.57.57,0,0,0,0-.06v0s0,0,0-.07h0v-.08a.6.6,0,0,0,0-.07v-.08h0l0-.08v0l0-.08h0l0-.09v0l-.06-.18v0l0-.09h0l0-.09v0l0-.1h0l0-.09v0l-.06-.1v0l-.06-.09h0l-.07-.1v0l-.07-.1h0l-.08-.11h0l-.1-.12h0l-.1-.11,0,0-.11-.11h0l-.12-.11h0l-.13-.12,0,0-.14-.11h0l-.15-.11,0,0-.15-.11,0,0-.17-.11-.17-.11h0l-.17-.09,0,0-.16-.08h0l-.16-.07h0l-.33-.12h0l-.16,0h0l-.15,0h0l-.15,0h0l-.31,0h-.49l-.28,0h0L138,39h0l-.12,0h0l-.12,0h0l-.23.06h0l-.1,0h0l-.09,0h0l-.09,0h0l-.16.07h0l-.07,0h0l-.06,0h0l-.05,0h0l0,0h0l0,0h0l-.06,0h.51l.07,0h0l0,0h0l0,0h0l0,0h0l.08.06c.43.38,1.58,3.66,4.93,3.75h.08l.11,0a3.27,3.27,0,0,1,.17.6s0,.3.06.71c0,.26-.05.52-.08.79h0c-.1.87-.21,1.76-.34,2.65h0l-.14.9a.85.85,0,0,0,.8,0,64.12,64.12,0,0,0,.61-6.85.08.08,0,0,0,0,0c.14-.93.32-1.6.32-1.6a7.19,7.19,0,0,1,.5-1.21.78.78,0,0,0,.2.08h.17c7,.66,10.24-5.91,11.23-6.59l.08-.06h0l0,0h0l0,0,0,0h0l0,0,0,0,0,0h0l.05,0h0l.05,0h.24a2,2,0,0,1,.39,0h0Zm-15.87-8.11h0v0h0v0h0v0h0v-.06l0,0a2.29,2.29,0,0,0,0,.42l-.13-.24Zm.15-.11h.1a3,3,0,0,0-.05.37A1.51,1.51,0,0,1,141.86,24.42Z"/><path class="cls-3" d="M143.28,53.35c6,0,10.83-2.24,10.83-5H132.44C132.44,51.11,137.29,53.35,143.28,53.35Z"/><path class="cls-3" d="M154.79,48.75c0,.08-.24.14-.53.14H132.3c-.29,0-.53-.06-.53-.14v-.8c0-.08.24-.14.53-.14h21.95c.3,0,.53.06.53.14Z"/><g id="FOndation"><polygon class="cls-3" points="5.28 11.94 1.2 11.94 1.2 8.59 6.73 8.59 6.73 7.54 0 7.54 0 17.53 1.2 17.53 1.2 12.98 5.28 12.98 5.28 11.94"/><path class="cls-3" d="M17.33,9a4.8,4.8,0,0,0-3.56-1.43,4.88,4.88,0,0,0-5,5,4.89,4.89,0,0,0,5,5,4.88,4.88,0,0,0,5-5A4.8,4.8,0,0,0,17.33,9Zm-.82,6.36a3.59,3.59,0,0,1-2.74,1.15A3.6,3.6,0,0,1,11,15.33a4,4,0,0,1-1-2.79,4,4,0,0,1,1-2.79,3.59,3.59,0,0,1,2.74-1.15,3.6,3.6,0,0,1,2.75,1.15,4,4,0,0,1,1,2.79A4,4,0,0,1,16.51,15.33Z"/><polygon class="cls-3" points="30.36 17.53 30.36 7.54 29.16 7.54 29.16 15.14 21.54 7.54 21.54 17.53 22.74 17.53 22.74 10.01 30.26 17.53 30.36 17.53"/><path class="cls-3" d="M37.58,7.54H33.84v10h3.73c3.16,0,4.63-1.59,4.63-5S40.73,7.54,37.58,7.54Zm0,8.8H35V8.74h2.54c1.56,0,3.42.66,3.43,3.79S39.14,16.34,37.58,16.34Z"/><path class="cls-3" d="M52.6,15.85l.66,1.68h1.26l-4-10H49l-4,10h1.26l.66-1.68ZM49.83,8.61l2.35,6H47.42Z"/><polygon class="cls-3" points="64.78 7.54 56.26 7.54 56.26 8.59 59.92 8.59 59.92 17.53 61.12 17.53 61.12 8.59 64.78 8.59 64.78 7.54"/><rect class="cls-3" x="67.92" y="7.53" width="1.19" height="9.99"/><path class="cls-3" d="M80.75,9a5,5,0,0,0-8.56,3.57,5,5,0,1,0,10,0A4.8,4.8,0,0,0,80.75,9Zm-.82,6.36a3.86,3.86,0,0,1-5.49,0,4,4,0,0,1-1-2.79,4,4,0,0,1,1-2.79,3.86,3.86,0,0,1,5.49,0,4,4,0,0,1,1,2.79A4,4,0,0,1,79.93,15.33Z"/><polygon class="cls-3" points="94.22 17.53 94.22 7.54 93.02 7.54 93.02 15.13 85.41 7.54 85.41 17.53 86.6 17.53 86.6 10.01 94.12 17.53 94.22 17.53"/></g><polygon class="cls-3" points="190.84 55.79 186.76 55.79 186.76 52.45 192.29 52.45 192.29 51.4 185.56 51.4 185.56 61.38 186.76 61.38 186.76 56.83 190.84 56.83 190.84 55.79"/><path class="cls-3" d="M202.89,52.82a5.17,5.17,0,1,0,1.43,3.57A4.8,4.8,0,0,0,202.89,52.82Zm-.82,6.36a3.86,3.86,0,0,1-5.49,0,4.24,4.24,0,0,1,0-5.59,3.86,3.86,0,0,1,5.49,0,4.25,4.25,0,0,1,0,5.59Z"/><path class="cls-3" d="M215.3,51.4h-1.2v5.87a2.69,2.69,0,0,1-.92,2.22,3.65,3.65,0,0,1-4.29,0,2.69,2.69,0,0,1-.92-2.22V51.4h-1.2v6.46A3.13,3.13,0,0,0,208,60.33a5,5,0,0,0,6.16,0,3.14,3.14,0,0,0,1.18-2.48Z"/><polygon class="cls-3" points="227.49 61.38 227.49 51.4 226.29 51.4 226.29 58.99 218.68 51.4 218.68 61.38 219.87 61.38 219.87 53.86 227.39 61.38 227.49 61.38"/><path class="cls-3" d="M234.5,51.39h-3.73v10h3.73c3.16,0,4.63-1.59,4.63-5S237.66,51.39,234.5,51.39Zm0,8.8H232v-7.6h2.54c1.56,0,3.42.66,3.43,3.79S236.06,60.19,234.5,60.19Z"/><path class="cls-3" d="M249.73,59.7l.66,1.68h1.26l-4-10h-1.52l-4,10h1.26l.66-1.68ZM247,52.46l2.35,6h-4.77Z"/><polygon class="cls-3" points="262.49 51.4 253.97 51.4 253.97 52.45 257.63 52.45 257.63 61.38 258.83 61.38 258.83 52.45 262.49 52.45 262.49 51.4"/><rect class="cls-3" x="265.13" y="51.39" width="1.19" height="9.99"/><path class="cls-3" d="M277.52,52.82A5.16,5.16,0,1,0,279,56.39,4.8,4.8,0,0,0,277.52,52.82Zm-.82,6.36a3.86,3.86,0,0,1-5.49,0,4.25,4.25,0,0,1,0-5.59,3.86,3.86,0,0,1,5.49,0,4.24,4.24,0,0,1,0,5.59Z"/><polygon class="cls-3" points="290.4 61.38 290.4 51.4 289.2 51.4 289.2 58.99 281.58 51.4 281.58 61.38 282.78 61.38 282.78 53.86 290.3 61.38 290.4 61.38"/></g></g></svg>